<svg width="11" height="7" viewBox="0 0 11 7" fill="none" xmlns="http://www.w3.org/2000/svg">
<path d="M9.91471 6.49998C9.76982 6.50081 9.62619 6.47342 9.49206 6.41938C9.35792 6.36534 9.23592 6.28572 9.13305 6.18507L5.51101 2.59078L1.87796 6.04391C1.67168 6.24616 1.39265 6.35968 1.1018 6.35968C0.810955 6.35968 0.531924 6.24616 0.325652 6.04391C0.222464 5.94296 0.140562 5.82286 0.084669 5.69053C0.0287765 5.55821 0 5.41628 0 5.27293C0 5.12958 0.0287765 4.98764 0.084669 4.85532C0.140562 4.72299 0.222464 4.60289 0.325652 4.50194L4.72935 0.310409C4.93515 0.111445 5.21183 0 5.5 0C5.78817 0 6.06485 0.111445 6.27065 0.310409L10.6743 4.65397C10.7775 4.75492 10.8594 4.87502 10.9153 5.00734C10.9712 5.13967 11 5.2816 11 5.42495C11 5.5683 10.9712 5.71023 10.9153 5.84256C10.8594 5.97488 10.7775 6.09499 10.6743 6.19593C10.4703 6.38996 10.1982 6.49887 9.91471 6.49998Z" fill="#40B526"/>
</svg>
