<svg width="25" height="16" viewBox="0 0 25 16" fill="none" xmlns="http://www.w3.org/2000/svg">
<g clip-path="url(#clip0_24965_65)">
<path d="M4.95 10.97L2.898 6.02L2.16 4.112V14.3H0V1.7H3.24L6.048 8.522L8.856 1.7H12.06V14.3H9.9V4.094L9.144 6.02L7.11 10.97H4.95Z" fill="#40B526"/>
<path d="M19.8023 14.462C16.6703 14.462 15.2123 13.058 15.0323 10.07H17.3363C17.4623 11.78 18.1463 12.428 19.8023 12.428C21.5303 12.428 22.3043 11.69 22.3043 10.754C22.3043 7.946 15.2123 9.674 15.2123 5.048C15.2123 3.032 16.7243 1.538 19.8023 1.538C22.8623 1.538 24.2123 2.87 24.3923 5.57H22.0883C21.9623 4.13 21.3683 3.554 19.7843 3.554C18.1643 3.554 17.4803 4.238 17.4803 5.066C17.4803 7.748 24.5723 5.966 24.5723 10.79C24.5723 12.968 23.0603 14.462 19.8023 14.462Z" fill="#40B526"/>
</g>
<defs>
<clipPath id="clip0_24965_65">
<rect width="24.5723" height="16" fill="white"/>
</clipPath>
</defs>
</svg>
